<svg xmlns="http://www.w3.org/2000/svg" viewBox="-6.1150049999999965 163 587.2300109863281 249"> <svg xmlns="http://www.w3.org/2000/svg" xmlns:xlink="http://www.w3.org/1999/xlink" version="1.1" id="Layer_1" x="63.884995" y="233" viewBox="218.70001220703125 226.60000610351562 88.79998779296875 88.79998779296875" xml:space="preserve" height="109" width="109" preserveAspectRatio="xMinYMin" enable-background="new 0 0 600 800" style="overflow: visible;"><path d="M263.1,312.3c-22.8,0-41.3-18.5-41.3-41.3c0-22.8,18.5-41.3,41.3-41.3s41.3,18.5,41.3,41.3   C304.5,293.8,285.9,312.3,263.1,312.3z M263.1,230.7c-22.2,0-40.3,18.1-40.3,40.3c0,22.2,18.1,40.3,40.3,40.3   c22.2,0,40.3-18.1,40.3-40.3C303.5,248.8,285.4,230.7,263.1,230.7z" style="fill: #69765e; fill-opacity: 1;"></path><path d="M263.1,315.4c-24.5,0-44.4-19.9-44.4-44.4s19.9-44.4,44.4-44.4c24.5,0,44.4,19.9,44.4,44.4S287.6,315.4,263.1,315.4z    M263.1,227.6c-23.9,0-43.4,19.5-43.4,43.4s19.5,43.4,43.4,43.4s43.4-19.5,43.4-43.4S287.1,227.6,263.1,227.6z" style="fill: #69765e; fill-opacity: 1;"></path><path d="M263.1,312.3c-0.1,0-0.2,0-0.3-0.1c-0.2-0.1-0.3-0.4-0.2-0.6l3-9c3.8-11.5,13.6-19.9,25.5-22.1l11.4-2    c0.2,0,0.4,0.1,0.5,0.3s0,0.5-0.1,0.6l-39.4,32.8C263.4,312.3,263.3,312.3,263.1,312.3z M300.8,279.9l-9.5,1.7    c-11.6,2.1-21,10.3-24.7,21.4l-2.4,7.3L300.8,279.9z" style="fill: #69765e; fill-opacity: 1;"></path><path d="M263.6,312.1l-0.9-0.5l1.6-2.8c7.8-13.9,20.3-24.2,35.4-29.2l2.7-0.9l0.3,0.9l-2.7,0.9c-14.8,4.9-27.2,15.2-34.9,28.8    L263.6,312.1z" style="fill: #69765e; fill-opacity: 1;"></path><path d="M263.1,312.3c-0.1,0-0.2,0-0.3-0.1l-39.4-32.8c-0.2-0.1-0.2-0.4-0.1-0.6c0.1-0.2,0.3-0.3,0.5-0.3l11.4,2    c11.9,2.1,21.7,10.6,25.5,22.1l3,9c0.1,0.2,0,0.4-0.2,0.6C263.3,312.3,263.2,312.3,263.1,312.3z M225.5,279.9l36.6,30.4l-2.4-7.3    c-3.7-11.1-13.2-19.3-24.7-21.4L225.5,279.9z" style="fill: #69765e; fill-opacity: 1;"></path><path d="M262.7,312.1l-1.6-2.8c-7.6-13.6-20-23.9-34.9-28.8l-2.7-0.9l0.3-0.9l2.7,0.9c15.1,5,27.7,15.4,35.4,29.2l1.6,2.8    L262.7,312.1z" style="fill: #69765e; fill-opacity: 1;"></path><path d="M263.1,312.3c-0.3,0-0.5-0.2-0.5-0.5v-11.2c0-9.5,4.8-18.1,12.9-23.1c4.6-2.8,7.3-7.7,7.3-13.1v-4c0-0.3,0.2-0.5,0.5-0.5   h0.6c6.4,0,11.8-4.3,13.3-10.5c0.1-0.2,0.3-0.4,0.5-0.4c0.3,0,0.4,0.2,0.4,0.5v13.7c0,5.6-3.3,10.7-8.3,13.1l-11.3,5.4   c-9.2,4.3-15.1,13.7-15.1,23.8v6.4C263.6,312.1,263.4,312.3,263.1,312.3z M283.9,260.9v3.5c0,5.7-2.9,11-7.8,14   c-6.9,4.3-11.3,11.3-12.3,19.2c2.2-7.3,7.4-13.5,14.5-16.8l11.3-5.4c4.7-2.2,7.7-7,7.7-12.2v-10.7c-2.4,5.1-7.5,8.4-13.3,8.4H283.9   z" style="fill: #69765e; fill-opacity: 1;"></path><path d="M279.4,281.3l-0.4-0.9c5.5-2.6,9-8.2,9-14.3v-6.5h1v6.5C288.9,272.6,285.2,278.6,279.4,281.3z" style="fill: #69765e; fill-opacity: 1;"></path><path d="M284.7,278.8l-0.4-0.9c5.4-2.6,8.8-8,8.8-14v-7h1v7C294,270.3,290.4,276,284.7,278.8z" style="fill: #69765e; fill-opacity: 1;"></path><path d="M263.6,311.8h-1v-27.5c0-3,1.4-5.9,3.8-7.7l6.7-5.1c2.2-1.6,3.4-4.2,3.4-6.9v-13c0-6.9,5.6-12.5,12.5-12.5v1   c-6.3,0-11.5,5.2-11.5,11.5v13c0,3-1.4,5.9-3.8,7.7l-6.7,5.1c-2.2,1.6-3.4,4.2-3.4,6.9V311.8z" style="fill: #69765e; fill-opacity: 1;"></path><path d="M271.8,273.6h-1v-22c0-6.9,5.6-12.5,12.5-12.5h5.8v1h-5.8c-6.3,0-11.5,5.2-11.5,11.5V273.6z" style="fill: #69765e; fill-opacity: 1;"></path><path d="M277.7,259.6h-1c0-5.2,3.1-9.6,7.6-11.5h-6.4c-6.3,0-11.5,5.2-11.5,11.5h-1c0-6.9,5.6-12.5,12.5-12.5h11.3v1   C282.8,248.1,277.7,253.3,277.7,259.6z" style="fill: #69765e; fill-opacity: 1;"></path><path d="M260.9,259.6h-1c0-6.3-5.2-11.5-11.5-11.5H242c4.5,1.9,7.6,6.3,7.6,11.5h-1c0-6.3-5.2-11.5-11.5-11.5v-1h11.3   C255.3,247.1,260.9,252.7,260.9,259.6z" style="fill: #69765e; fill-opacity: 1;"></path><path d="M263.1,312.3c-0.3,0-0.5-0.2-0.5-0.5v-6.4c0-10.1-5.9-19.5-15.1-23.8l-11.3-5.4c-5-2.4-8.3-7.5-8.3-13.1v-13.7   c0-0.3,0.2-0.5,0.4-0.5c0.3,0,0.5,0.1,0.5,0.4c1.5,6.2,7,10.5,13.3,10.5h0.6c0.3,0,0.5,0.2,0.5,0.5v4c0,5.4,2.7,10.3,7.3,13.1   c8.1,5,12.9,13.6,12.9,23.1v11.2C263.6,312.1,263.4,312.3,263.1,312.3z M228.9,252.4v10.7c0,5.2,3,10,7.7,12.2l11.3,5.4   c7.1,3.3,12.3,9.5,14.5,16.8c-0.9-7.9-5.3-15-12.3-19.2c-4.9-3-7.8-8.2-7.8-14v-3.5h-0.1C236.5,260.9,231.3,257.5,228.9,252.4z" style="fill: #69765e; fill-opacity: 1;"></path><path d="M246.9,281.3c-5.8-2.8-9.6-8.8-9.6-15.2v-6.5h1v6.5c0,6.1,3.5,11.7,9,14.3L246.9,281.3z" style="fill: #69765e; fill-opacity: 1;"></path><path d="M241.6,278.8c-5.8-2.8-9.4-8.5-9.4-14.9v-7h1v7c0,6,3.4,11.4,8.8,14L241.6,278.8z" style="fill: #69765e; fill-opacity: 1;"></path><path d="M263.6,311.8h-1v-27.5c0-2.7-1.3-5.3-3.4-6.9l-6.7-5.1c-2.4-1.8-3.8-4.7-3.8-7.7v-13c0-6.3-5.2-11.5-11.5-11.5v-1   c6.9,0,12.5,5.6,12.5,12.5v13c0,2.7,1.3,5.3,3.4,6.9l6.7,5.1c2.4,1.8,3.8,4.7,3.8,7.7V311.8z" style="fill: #69765e; fill-opacity: 1;"></path><path d="M255.5,273.6h-1v-22c0-6.3-5.2-11.5-11.5-11.5h-5.8v-1h5.8c6.9,0,12.5,5.6,12.5,12.5V273.6z" style="fill: #69765e; fill-opacity: 1;"></path><path d="M260.9,247.6h-1v-6.3c0-3.9,1-7.9,2.8-11.4l0.9,0.5c-1.7,3.4-2.7,7.1-2.7,10.9V247.6z" style="fill: #69765e; fill-opacity: 1;"></path><path d="M266.4,247.6h-1v-6.3c0-3.8-0.9-7.5-2.7-10.9l0.9-0.5c1.8,3.5,2.8,7.4,2.8,11.4V247.6z" style="fill: #69765e; fill-opacity: 1;"></path><path d="M266.4,277.8h-1v-32.1c0-4.9,2.9-9.4,7.4-11.4l0.7,0.3l0,0.4c-1,1.8-1.6,3.9-1.6,6v14.1h-1V241c0-1.8,0.4-3.5,1-5.1   c-3.4,2.1-5.5,5.8-5.5,9.8V277.8z" style="fill: #69765e; fill-opacity: 1;"></path><path d="M260.9,277.8h-1v-32.1c0-4-2.1-7.7-5.5-9.8c0.7,1.6,1,3.4,1,5.1v14.1h-1V241c0-2.1-0.6-4.2-1.6-6l0-0.4l0.7-0.3   c4.5,2,7.4,6.5,7.4,11.4V277.8z" style="fill: #69765e; fill-opacity: 1;"></path></svg> <svg xmlns="http://www.w3.org/2000/svg" y="315" viewBox="1.7100000381469727 3.930000066757202 311.760009765625 13.569999694824219" x="194.38499450683594" height="13.569999694824219" width="311.760009765625" style="overflow: visible;"><g fill="#545454" fill-opacity="1" style=""><path d="M2.82 14.52L1.71 14.52L1.71 4.02L5.64 4.02Q6.97 4.02 7.93 4.45Q8.89 4.88 9.41 5.68Q9.93 6.48 9.93 7.62L9.93 7.62Q9.93 8.73 9.41 9.53Q8.89 10.34 7.93 10.76Q6.97 11.19 5.64 11.19L5.64 11.19L2.32 11.19L2.82 10.68L2.82 14.52ZM10.09 14.52L8.88 14.52L6.18 10.71L7.38 10.71L10.09 14.52ZM2.82 4.46L2.82 10.77L2.32 10.25L5.61 10.25Q7.18 10.25 8.00 9.55Q8.82 8.87 8.82 7.62L8.82 7.62Q8.82 6.36 8.00 5.67Q7.18 4.98 5.61 4.98L5.61 4.98L2.32 4.98L2.82 4.46ZM19.27 14.59L19.27 14.59Q18.04 14.59 17.11 14.08Q16.18 13.56 15.66 12.65Q15.13 11.74 15.13 10.57L15.13 10.57Q15.13 9.40 15.64 8.50Q16.14 7.60 17.02 7.09Q17.89 6.57 18.99 6.57L18.99 6.57Q20.10 6.57 20.96 7.07Q21.82 7.58 22.32 8.48Q22.81 9.39 22.81 10.57L22.81 10.57Q22.81 10.65 22.81 10.73Q22.80 10.81 22.80 10.90L22.80 10.90L15.94 10.90L15.94 10.11L22.23 10.11L21.81 10.43Q21.81 9.57 21.44 8.90Q21.07 8.23 20.45 7.86Q19.81 7.48 18.99 7.48L18.99 7.48Q18.18 7.48 17.53 7.86Q16.89 8.23 16.53 8.91Q16.17 9.59 16.17 10.46L16.17 10.46L16.17 10.62Q16.17 11.52 16.57 12.20Q16.96 12.88 17.68 13.27Q18.39 13.65 19.30 13.65L19.30 13.65Q20.02 13.65 20.65 13.39Q21.27 13.14 21.72 12.62L21.72 12.62L22.32 13.30Q21.79 13.93 21.01 14.26Q20.22 14.59 19.27 14.59ZM31.86 14.59L31.86 14.59Q30.69 14.59 29.77 14.08Q28.84 13.56 28.32 12.65Q27.79 11.74 27.79 10.57L27.79 10.57Q27.79 9.39 28.32 8.49Q28.84 7.59 29.77 7.08Q30.69 6.57 31.86 6.57L31.86 6.57Q32.86 6.57 33.67 6.96Q34.48 7.35 34.95 8.13L34.95 8.13L34.15 8.67Q33.75 8.07 33.15 7.79Q32.55 7.50 31.84 7.50L31.84 7.50Q31.00 7.50 30.33 7.88Q29.65 8.27 29.26 8.96Q28.87 9.64 28.87 10.57L28.87 10.57Q28.87 11.50 29.26 12.20Q29.65 12.88 30.33 13.27Q31.00 13.65 31.84 13.65L31.84 13.65Q32.55 13.65 33.15 13.37Q33.75 13.08 34.15 12.49L34.15 12.49L34.95 13.04Q34.48 13.80 33.67 14.20Q32.86 14.59 31.86 14.59ZM43.84 14.59L43.84 14.59Q42.70 14.59 41.80 14.08Q40.89 13.56 40.36 12.65Q39.84 11.74 39.84 10.57L39.84 10.57Q39.84 9.39 40.36 8.49Q40.89 7.59 41.79 7.08Q42.69 6.57 43.84 6.57L43.84 6.57Q45.02 6.57 45.92 7.08Q46.83 7.59 47.35 8.49Q47.86 9.39 47.86 10.57L47.86 10.57Q47.86 11.74 47.35 12.65Q46.83 13.56 45.91 14.08Q45 14.59 43.84 14.59ZM43.84 13.65L43.84 13.65Q44.70 13.65 45.36 13.27Q46.02 12.88 46.40 12.19Q46.78 11.49 46.78 10.57L46.78 10.57Q46.78 9.64 46.40 8.96Q46.02 8.27 45.36 7.88Q44.70 7.50 43.86 7.50L43.86 7.50Q43.02 7.50 42.36 7.88Q41.70 8.27 41.31 8.96Q40.92 9.64 40.92 10.57L40.92 10.57Q40.92 11.49 41.31 12.19Q41.70 12.88 42.36 13.27Q43.02 13.65 43.84 13.65ZM56.76 14.52L55.66 14.52L52.17 6.64L53.28 6.64L56.49 13.95L55.97 13.95L59.22 6.64L60.27 6.64L56.76 14.52ZM68.72 14.59L68.72 14.59Q67.48 14.59 66.55 14.08Q65.63 13.56 65.10 12.65Q64.58 11.74 64.58 10.57L64.58 10.57Q64.58 9.40 65.08 8.50Q65.58 7.60 66.46 7.09Q67.33 6.57 68.43 6.57L68.43 6.57Q69.54 6.57 70.40 7.07Q71.27 7.58 71.76 8.48Q72.25 9.39 72.25 10.57L72.25 10.57Q72.25 10.65 72.25 10.73Q72.24 10.81 72.24 10.90L72.24 10.90L65.38 10.90L65.38 10.11L71.67 10.11L71.25 10.43Q71.25 9.57 70.88 8.90Q70.52 8.23 69.88 7.86Q69.25 7.48 68.43 7.48L68.43 7.48Q67.62 7.48 66.97 7.86Q66.33 8.23 65.97 8.91Q65.61 9.59 65.61 10.46L65.61 10.46L65.61 10.62Q65.61 11.52 66.01 12.20Q66.41 12.88 67.12 13.27Q67.83 13.65 68.75 13.65L68.75 13.65Q69.47 13.65 70.09 13.39Q70.71 13.14 71.16 12.62L71.16 12.62L71.76 13.30Q71.23 13.93 70.45 14.26Q69.66 14.59 68.72 14.59ZM79.09 14.52L78.03 14.52L78.03 6.64L79.05 6.64L79.05 8.79L78.94 8.41Q79.27 7.51 80.05 7.04Q80.83 6.57 81.99 6.57L81.99 6.57L81.99 7.60Q81.93 7.60 81.87 7.60Q81.81 7.59 81.75 7.59L81.75 7.59Q80.50 7.59 79.80 8.35Q79.09 9.11 79.09 10.50L79.09 10.50L79.09 14.52ZM87.70 17.50L87.70 17.50Q87.15 17.50 86.65 17.32Q86.14 17.14 85.78 16.79L85.78 16.79L86.28 15.99Q86.58 16.27 86.93 16.43Q87.28 16.59 87.72 16.59L87.72 16.59Q88.24 16.59 88.63 16.30Q89.01 16.00 89.35 15.27L89.35 15.27L89.86 14.12L89.98 13.95L93.22 6.64L94.27 6.64L90.33 15.46Q90.00 16.23 89.60 16.68Q89.20 17.13 88.74 17.32Q88.27 17.50 87.70 17.50ZM90.49 13.88L89.80 14.74L86.17 6.64L87.28 6.64L90.49 13.88ZM114.81 14.52L114.81 4.02L115.90 4.02L115.90 14.52L114.81 14.52ZM108.24 4.02L108.24 14.52L107.13 14.52L107.13 4.02L108.24 4.02ZM114.91 8.70L114.91 9.68L108.12 9.68L108.12 8.70L114.91 8.70ZM125.91 14.59L125.91 14.59Q124.77 14.59 123.86 14.08Q122.95 13.56 122.43 12.65Q121.90 11.74 121.90 10.57L121.90 10.57Q121.90 9.39 122.43 8.49Q122.95 7.59 123.85 7.08Q124.75 6.57 125.91 6.57L125.91 6.57Q127.08 6.57 127.99 7.08Q128.89 7.59 129.41 8.49Q129.93 9.39 129.93 10.57L129.93 10.57Q129.93 11.74 129.41 12.65Q128.89 13.56 127.98 14.08Q127.06 14.59 125.91 14.59ZM125.91 13.65L125.91 13.65Q126.76 13.65 127.42 13.27Q128.08 12.88 128.47 12.19Q128.85 11.49 128.85 10.57L128.85 10.57Q128.85 9.64 128.47 8.96Q128.08 8.27 127.42 7.88Q126.76 7.50 125.92 7.50L125.92 7.50Q125.08 7.50 124.42 7.88Q123.76 8.27 123.37 8.96Q122.98 9.64 122.98 10.57L122.98 10.57Q122.98 11.49 123.37 12.19Q123.76 12.88 124.42 13.27Q125.08 13.65 125.91 13.65ZM145.54 6.57L145.54 6.57Q146.50 6.57 147.22 6.94Q147.93 7.30 148.33 8.05Q148.72 8.80 148.72 9.95L148.72 9.95L148.72 14.52L147.66 14.52L147.66 10.05Q147.66 8.80 147.07 8.17Q146.47 7.53 145.39 7.53L145.39 7.53Q144.58 7.53 143.99 7.87Q143.40 8.21 143.08 8.84Q142.75 9.48 142.75 10.38L142.75 10.38L142.75 14.52L141.69 14.52L141.69 10.05Q141.69 8.80 141.09 8.17Q140.49 7.53 139.41 7.53L139.41 7.53Q138.61 7.53 138.01 7.87Q137.41 8.21 137.09 8.84Q136.77 9.48 136.77 10.38L136.77 10.38L136.77 14.52L135.70 14.52L135.70 6.64L136.72 6.64L136.72 8.77L136.56 8.40Q136.92 7.54 137.72 7.06Q138.52 6.57 139.62 6.57L139.62 6.57Q140.77 6.57 141.58 7.15Q142.39 7.72 142.63 8.88L142.63 8.88L142.21 8.71Q142.56 7.75 143.44 7.16Q144.31 6.57 145.54 6.57ZM158.56 14.59L158.56 14.59Q157.33 14.59 156.40 14.08Q155.47 13.56 154.95 12.65Q154.42 11.74 154.42 10.57L154.42 10.57Q154.42 9.40 154.93 8.50Q155.43 7.60 156.31 7.09Q157.18 6.57 158.28 6.57L158.28 6.57Q159.39 6.57 160.25 7.07Q161.11 7.58 161.61 8.48Q162.10 9.39 162.10 10.57L162.10 10.57Q162.10 10.65 162.10 10.73Q162.09 10.81 162.09 10.90L162.09 10.90L155.23 10.90L155.23 10.11L161.52 10.11L161.10 10.43Q161.10 9.57 160.73 8.90Q160.36 8.23 159.73 7.86Q159.10 7.48 158.28 7.48L158.28 7.48Q157.47 7.48 156.82 7.86Q156.18 8.23 155.82 8.91Q155.46 9.59 155.46 10.46L155.46 10.46L155.46 10.62Q155.46 11.52 155.86 12.20Q156.25 12.88 156.97 13.27Q157.68 13.65 158.59 13.65L158.59 13.65Q159.31 13.65 159.94 13.39Q160.56 13.14 161.01 12.62L161.01 12.62L161.61 13.30Q161.08 13.93 160.30 14.26Q159.51 14.59 158.56 14.59ZM178.75 10.92L174.82 10.92L174.82 9.99L178.75 9.99L178.75 10.92ZM197.05 14.61L197.05 14.61Q195.87 14.61 194.86 14.21Q193.86 13.81 193.12 13.09Q192.39 12.38 191.98 11.40Q191.56 10.43 191.56 9.27L191.56 9.27Q191.56 8.12 191.98 7.14Q192.39 6.16 193.13 5.45Q193.87 4.72 194.88 4.33Q195.88 3.93 197.07 3.93L197.07 3.93Q198.21 3.93 199.21 4.31Q200.22 4.70 200.91 5.46L200.91 5.46L200.20 6.16Q199.56 5.51 198.78 5.21Q198.00 4.92 197.10 4.92L197.10 4.92Q196.15 4.92 195.34 5.24Q194.53 5.56 193.93 6.16Q193.33 6.75 193.00 7.54Q192.66 8.32 192.66 9.27L192.66 9.27Q192.66 10.21 193.00 11.00Q193.33 11.79 193.93 12.38Q194.53 12.97 195.34 13.30Q196.15 13.62 197.10 13.62L197.10 13.62Q198.00 13.62 198.78 13.32Q199.56 13.02 200.20 12.36L200.20 12.36L200.91 13.06Q200.22 13.83 199.21 14.22Q198.21 14.61 197.05 14.61ZM209.86 14.59L209.86 14.59Q208.72 14.59 207.82 14.08Q206.91 13.56 206.38 12.65Q205.86 11.74 205.86 10.57L205.86 10.57Q205.86 9.39 206.38 8.49Q206.91 7.59 207.81 7.08Q208.71 6.57 209.86 6.57L209.86 6.57Q211.03 6.57 211.94 7.08Q212.85 7.59 213.37 8.49Q213.88 9.39 213.88 10.57L213.88 10.57Q213.88 11.74 213.37 12.65Q212.85 13.56 211.93 14.08Q211.02 14.59 209.86 14.59ZM209.86 13.65L209.86 13.65Q210.72 13.65 211.38 13.27Q212.04 12.88 212.42 12.19Q212.80 11.49 212.80 10.57L212.80 10.57Q212.80 9.64 212.42 8.96Q212.04 8.27 211.38 7.88Q210.72 7.50 209.88 7.50L209.88 7.50Q209.04 7.50 208.38 7.88Q207.72 8.27 207.33 8.96Q206.94 9.64 206.94 10.57L206.94 10.57Q206.94 11.49 207.33 12.19Q207.72 12.88 208.38 13.27Q209.04 13.65 209.86 13.65ZM223.68 6.57L223.68 6.57Q224.64 6.57 225.37 6.94Q226.09 7.30 226.51 8.05Q226.92 8.80 226.92 9.95L226.92 9.95L226.92 14.52L225.85 14.52L225.85 10.05Q225.85 8.80 225.23 8.17Q224.61 7.53 223.48 7.53L223.48 7.53Q222.64 7.53 222.02 7.87Q221.40 8.21 221.06 8.84Q220.72 9.48 220.72 10.38L220.72 10.38L220.72 14.52L219.66 14.52L219.66 6.64L220.68 6.64L220.68 8.80L220.51 8.40Q220.89 7.54 221.71 7.06Q222.54 6.57 223.68 6.57ZM236.01 14.52L235.00 14.52L232.03 6.64L233.05 6.64L235.75 13.95L235.29 13.95L238.06 6.64L238.98 6.64L241.72 13.95L241.26 13.95L244.00 6.64L244.98 6.64L241.99 14.52L240.99 14.52L238.35 7.65L238.66 7.65L236.01 14.52ZM256.14 14.52L255.12 14.52L255.12 12.78L255.07 12.49L255.07 9.59Q255.07 8.58 254.51 8.04Q253.95 7.50 252.84 7.50L252.84 7.50Q252.07 7.50 251.38 7.75Q250.69 8.01 250.21 8.43L250.21 8.43L249.73 7.63Q250.33 7.13 251.17 6.85Q252.01 6.57 252.94 6.57L252.94 6.57Q254.47 6.57 255.31 7.33Q256.14 8.09 256.14 9.63L256.14 9.63L256.14 14.52ZM252.40 14.59L252.40 14.59Q251.52 14.59 250.87 14.30Q250.21 14.01 249.87 13.49Q249.52 12.97 249.52 12.30L249.52 12.30Q249.52 11.68 249.82 11.18Q250.11 10.68 250.78 10.37Q251.44 10.06 252.57 10.06L252.57 10.06L255.28 10.06L255.28 10.86L252.60 10.86Q251.46 10.86 251.02 11.27Q250.57 11.67 250.57 12.27L250.57 12.27Q250.57 12.95 251.10 13.35Q251.62 13.75 252.57 13.75L252.57 13.75Q253.47 13.75 254.12 13.34Q254.77 12.93 255.07 12.15L255.07 12.15L255.31 12.88Q255.01 13.66 254.27 14.13Q253.53 14.59 252.40 14.59ZM262.69 17.50L262.69 17.50Q262.14 17.50 261.64 17.32Q261.13 17.14 260.77 16.79L260.77 16.79L261.27 15.99Q261.57 16.27 261.92 16.43Q262.27 16.59 262.71 16.59L262.71 16.59Q263.23 16.59 263.62 16.30Q264.00 16.00 264.34 15.27L264.34 15.27L264.85 14.12L264.97 13.95L268.21 6.64L269.26 6.64L265.32 15.46Q264.99 16.23 264.59 16.68Q264.19 17.13 263.73 17.32Q263.26 17.50 262.69 17.50ZM265.48 13.88L264.79 14.74L261.16 6.64L262.27 6.64L265.48 13.88ZM274.44 16.71L273.72 16.71L274.38 13.93L274.50 14.58Q274.15 14.58 273.92 14.36Q273.69 14.13 273.69 13.77L273.69 13.77Q273.69 13.41 273.92 13.18Q274.15 12.96 274.48 12.96L274.48 12.96Q274.83 12.96 275.05 13.20Q275.26 13.44 275.26 13.77L275.26 13.77Q275.26 13.89 275.25 14.01Q275.23 14.13 275.19 14.28Q275.14 14.43 275.07 14.64L275.07 14.64L274.44 16.71ZM290.01 14.52L288.90 14.52L288.90 4.02L289.81 4.02L297.06 13.14L296.58 13.14L296.58 4.02L297.68 4.02L297.68 14.52L296.76 14.52L289.53 5.40L290.01 5.40L290.01 14.52ZM312.38 14.52L312.38 4.02L313.47 4.02L313.47 14.52L312.38 14.52ZM305.81 4.02L305.81 14.52L304.69 14.52L304.69 4.02L305.81 4.02ZM312.48 8.70L312.48 9.68L305.69 9.68L305.69 8.70L312.48 8.70Z" transform="translate(0, 0)"></path></g></svg> <svg xmlns="http://www.w3.org/2000/svg" y="253" viewBox="1.6800000667572021 17.280000686645508 321.7300109863281 46.290000915527344" x="189.384995" height="46.290000915527344" width="321.7300109863281" style="overflow: visible;"><g fill="#545454" fill-opacity="1" style=""><path d="M34.34 21.69L34.34 21.69Q34.10 23.90 34.02 25.95Q33.93 28.01 33.93 29.12L33.93 29.12Q33.93 30.51 33.99 31.73Q34.05 32.94 34.10 33.87L34.10 33.87L32.77 33.87Q32.36 29.81 31.67 27.46Q30.97 25.11 29.23 24.07Q27.49 23.03 23.84 23.03L23.84 23.03L20.71 23.03L20.71 56.03Q20.71 58.35 21.14 59.51Q21.58 60.67 22.85 61.07Q24.13 61.48 26.56 61.60L26.56 61.60L26.56 62.76Q25.06 62.64 22.74 62.61Q20.42 62.58 18.04 62.58L18.04 62.58Q15.43 62.58 13.14 62.61Q10.85 62.64 9.45 62.76L9.45 62.76L9.45 61.60Q11.89 61.48 13.17 61.07Q14.44 60.67 14.88 59.51Q15.31 58.35 15.31 56.03L15.31 56.03L15.31 23.03L12.18 23.03Q8.58 23.03 6.82 24.07Q5.05 25.11 4.35 27.46Q3.65 29.81 3.25 33.87L3.25 33.87L1.91 33.87Q2.03 32.94 2.06 31.73Q2.09 30.51 2.09 29.12L2.09 29.12Q2.09 28.01 2.00 25.95Q1.91 23.90 1.68 21.69L1.68 21.69Q4.12 21.75 6.99 21.81Q9.86 21.87 12.76 21.87Q15.66 21.87 18.04 21.87L18.04 21.87Q20.42 21.87 23.29 21.87Q26.16 21.87 29.06 21.81Q31.96 21.75 34.34 21.69ZM46.81 17.34L46.81 17.34L46.81 39.03Q48.31 35.09 51.01 33.58Q53.71 32.07 56.67 32.07L56.67 32.07Q58.87 32.07 60.35 32.65Q61.83 33.23 62.81 34.28L62.81 34.28Q63.92 35.44 64.38 37.18Q64.84 38.92 64.84 41.88L64.84 41.88L64.84 57.36Q64.84 59.80 65.86 60.67Q66.87 61.54 69.25 61.54L69.25 61.54L69.25 62.76Q68.27 62.70 66.24 62.61Q64.21 62.52 62.29 62.52L62.29 62.52Q60.38 62.52 58.55 62.61Q56.72 62.70 55.80 62.76L55.80 62.76L55.80 61.54Q57.88 61.54 58.75 60.67Q59.62 59.80 59.62 57.36L59.62 57.36L59.62 40.60Q59.62 38.80 59.33 37.29Q59.04 35.79 58.03 34.86Q57.01 33.93 54.93 33.93L54.93 33.93Q52.55 33.93 50.72 35.26Q48.89 36.60 47.85 38.98Q46.81 41.35 46.81 44.43L46.81 44.43L46.81 57.36Q46.81 59.80 47.68 60.67Q48.55 61.54 50.63 61.54L50.63 61.54L50.63 62.76Q49.71 62.70 47.88 62.61Q46.05 62.52 44.14 62.52L44.14 62.52Q42.22 62.52 40.19 62.61Q38.16 62.70 37.18 62.76L37.18 62.76L37.18 61.54Q39.56 61.54 40.57 60.67Q41.59 59.80 41.59 57.36L41.59 57.36L41.59 24.30Q41.59 21.69 40.66 20.45Q39.73 19.20 37.18 19.20L37.18 19.20L37.18 17.98Q39.03 18.15 40.77 18.15L40.77 18.15Q42.46 18.15 43.99 17.95Q45.53 17.75 46.81 17.34ZM78.42 18.39L78.42 18.39Q79.92 18.39 81.03 19.49Q82.13 20.59 82.13 22.10L82.13 22.10Q82.13 23.61 81.03 24.71Q79.92 25.81 78.42 25.81L78.42 25.81Q76.91 25.81 75.81 24.71Q74.70 23.61 74.70 22.10L74.70 22.10Q74.70 20.59 75.81 19.49Q76.91 18.39 78.42 18.39ZM81.43 32.25L81.43 32.25L81.43 57.36Q81.43 59.80 82.45 60.67Q83.46 61.54 85.84 61.54L85.84 61.54L85.84 62.76Q84.85 62.70 82.85 62.61Q80.85 62.52 78.82 62.52L78.82 62.52Q76.85 62.52 74.82 62.61Q72.79 62.70 71.80 62.76L71.80 62.76L71.80 61.54Q74.18 61.54 75.20 60.67Q76.21 59.80 76.21 57.36L76.21 57.36L76.21 39.21Q76.21 36.60 75.28 35.35Q74.36 34.10 71.80 34.10L71.80 34.10L71.80 32.89Q73.66 33.06 75.40 33.06L75.40 33.06Q77.08 33.06 78.62 32.86Q80.16 32.65 81.43 32.25ZM99.18 32.07L99.18 32.07Q101.50 32.07 103.12 32.83Q104.75 33.58 105.50 34.22L105.50 34.22Q107.42 35.79 107.82 32.13L107.82 32.13L109.16 32.13Q109.04 33.76 108.98 35.99Q108.92 38.22 108.92 41.99L108.92 41.99L107.59 41.99Q107.24 39.85 106.40 37.82Q105.56 35.79 103.94 34.48Q102.31 33.18 99.70 33.18L99.70 33.18Q97.67 33.18 96.31 34.31Q94.95 35.44 94.95 37.64L94.95 37.64Q94.95 39.38 95.99 40.63Q97.03 41.88 98.72 42.95Q100.40 44.02 102.37 45.30L102.37 45.30Q104.57 46.69 106.37 48.14Q108.17 49.59 109.24 51.33Q110.32 53.07 110.32 55.45L110.32 55.45Q110.32 58.12 108.92 59.91Q107.53 61.71 105.30 62.64Q103.07 63.57 100.40 63.57L100.40 63.57Q99.12 63.57 97.99 63.37Q96.86 63.16 95.82 62.76L95.82 62.76Q95.24 62.47 94.63 62.06Q94.02 61.65 93.44 61.19L93.44 61.19Q92.86 60.73 92.39 61.22Q91.93 61.71 91.70 63.16L91.70 63.16L90.36 63.16Q90.48 61.31 90.54 58.64Q90.60 55.97 90.60 51.56L90.60 51.56L91.93 51.56Q92.34 54.81 93.09 57.25Q93.84 59.68 95.47 61.05Q97.09 62.41 99.99 62.41L99.99 62.41Q101.15 62.41 102.34 61.89Q103.53 61.36 104.34 60.15Q105.15 58.93 105.15 56.90L105.15 56.90Q105.15 54.35 103.30 52.72Q101.44 51.10 98.60 49.30L98.60 49.30Q96.51 47.97 94.69 46.63Q92.86 45.30 91.73 43.62Q90.60 41.93 90.60 39.56L90.60 39.56Q90.60 36.95 91.78 35.29Q92.97 33.64 94.95 32.86Q96.92 32.07 99.18 32.07ZM124.06 23.26L124.06 23.26L124.06 32.94L132.65 32.94L132.65 34.10L124.06 34.10L124.06 56.55Q124.06 59.28 125.05 60.38Q126.03 61.48 127.77 61.48L127.77 61.48Q129.51 61.48 130.79 60.06Q132.07 58.64 132.99 55.27L132.99 55.27L134.15 55.56Q133.57 58.93 131.86 61.25Q130.15 63.57 126.61 63.57L126.61 63.57Q124.64 63.57 123.37 63.08Q122.09 62.58 121.10 61.65L121.10 61.65Q119.83 60.32 119.34 58.46Q118.84 56.61 118.84 53.53L118.84 53.53L118.84 34.10L113.27 34.10L113.27 32.94L118.84 32.94L118.84 24.07Q120.29 24.01 121.63 23.84Q122.96 23.66 124.06 23.26ZM144.48 17.28L144.48 17.28L144.48 57.36Q144.48 59.80 145.49 60.67Q146.51 61.54 148.89 61.54L148.89 61.54L148.89 62.76Q147.90 62.70 145.90 62.61Q143.90 62.52 141.87 62.52L141.87 62.52Q139.90 62.52 137.87 62.61Q135.84 62.70 134.85 62.76L134.85 62.76L134.85 61.54Q137.23 61.54 138.24 60.67Q139.26 59.80 139.26 57.36L139.26 57.36L139.26 24.24Q139.26 21.63 138.33 20.39Q137.40 19.14 134.85 19.14L134.85 19.14L134.85 17.92Q136.71 18.10 138.45 18.10L138.45 18.10Q140.13 18.10 141.67 17.89Q143.20 17.69 144.48 17.28ZM165.94 32.07L165.94 32.07Q171.04 32.07 173.91 35.18Q176.78 38.28 176.78 44.83L176.78 44.83L156.31 44.83L156.25 43.73L171.22 43.73Q171.33 40.89 170.75 38.48Q170.17 36.08 168.93 34.63Q167.68 33.18 165.71 33.18L165.71 33.18Q163.04 33.18 160.98 35.84Q158.92 38.51 158.51 44.31L158.51 44.31L158.69 44.54Q158.57 45.41 158.51 46.46Q158.46 47.50 158.46 48.55L158.46 48.55Q158.46 52.49 159.73 55.33Q161.01 58.17 163.07 59.65Q165.13 61.13 167.33 61.13L167.33 61.13Q169.07 61.13 170.64 60.58Q172.20 60.03 173.54 58.75Q174.87 57.48 175.86 55.33L175.86 55.33L177.02 55.80Q176.38 57.71 174.93 59.51Q173.48 61.31 171.27 62.44Q169.07 63.57 166.17 63.57L166.17 63.57Q161.99 63.57 159.01 61.65Q156.02 59.74 154.43 56.35Q152.83 52.95 152.83 48.55L152.83 48.55Q152.83 43.44 154.45 39.76Q156.08 36.08 159.04 34.08Q161.99 32.07 165.94 32.07ZM207.58 17.28L207.58 17.28L207.58 56.43Q207.58 59.04 208.54 60.29Q209.50 61.54 211.99 61.54L211.99 61.54L211.99 62.76Q210.19 62.58 208.39 62.58L208.39 62.58Q206.71 62.58 205.18 62.76Q203.64 62.93 202.36 63.39L202.36 63.39L202.36 24.24Q202.36 21.63 201.43 20.39Q200.51 19.14 197.95 19.14L197.95 19.14L197.95 17.92Q199.81 18.10 201.55 18.10L201.55 18.10Q203.23 18.10 204.77 17.89Q206.31 17.69 207.58 17.28ZM195.40 32.07L195.40 32.07Q197.95 32.07 200.19 33.29Q202.42 34.51 203.17 37.47L203.17 37.47L202.42 38.05Q201.61 35.61 199.90 34.51Q198.19 33.41 195.87 33.41L195.87 33.41Q192.44 33.41 190.15 36.95Q187.86 40.48 187.92 47.85L187.92 47.85Q187.92 52.55 188.82 55.65Q189.72 58.75 191.49 60.29Q193.26 61.83 195.81 61.83L195.81 61.83Q198.24 61.83 200.22 59.74Q202.19 57.65 202.59 53.59L202.59 53.59L203.29 54.40Q202.83 58.81 200.48 61.19Q198.13 63.57 194.13 63.57L194.13 63.57Q190.53 63.57 187.83 61.83Q185.14 60.09 183.72 56.61Q182.29 53.13 182.29 47.85L182.29 47.85Q182.29 42.57 184.12 39.06Q185.95 35.55 188.94 33.81Q191.92 32.07 195.40 32.07ZM229.10 32.07L229.10 32.07Q232.81 32.07 235.77 33.70Q238.73 35.32 240.50 38.80Q242.27 42.28 242.27 47.85L242.27 47.85Q242.27 53.42 240.50 56.87Q238.73 60.32 235.77 61.94Q232.81 63.57 229.10 63.57L229.10 63.57Q225.45 63.57 222.46 61.94Q219.47 60.32 217.70 56.87Q215.93 53.42 215.93 47.85L215.93 47.85Q215.93 42.28 217.70 38.80Q219.47 35.32 222.46 33.70Q225.45 32.07 229.10 32.07ZM229.10 33.23L229.10 33.23Q225.79 33.23 223.68 36.66Q221.56 40.08 221.56 47.85L221.56 47.85Q221.56 55.62 223.68 59.02Q225.79 62.41 229.10 62.41L229.10 62.41Q232.41 62.41 234.52 59.02Q236.64 55.62 236.64 47.85L236.64 47.85Q236.64 40.08 234.52 36.66Q232.41 33.23 229.10 33.23ZM257.64 32.89L257.64 32.89L257.64 34.10Q256.19 34.10 255.08 34.31Q253.98 34.51 253.63 35.50Q253.29 36.48 254.16 38.98L254.16 38.98L260.19 56.26L259.78 56.20L268.31 32.65L269.47 33.12L258.85 63.05Q258.62 63.05 258.39 63.05Q258.16 63.05 257.87 63.05L257.87 63.05L248.36 37.35Q247.43 35.03 246.53 34.57Q245.63 34.10 244.99 34.10L244.99 34.10L244.99 32.89Q246.15 33.06 247.40 33.15Q248.65 33.23 250.10 33.23L250.10 33.23Q251.89 33.23 253.90 33.12Q255.90 33.00 257.64 32.89ZM289.48 32.89L289.48 32.89L289.48 34.05Q288.38 34.16 287.42 35.00Q286.46 35.84 285.71 38.11L285.71 38.11L277.30 63.05Q277.07 63.05 276.83 63.05Q276.60 63.05 276.31 63.05L276.31 63.05L266.97 39.32L268.31 32.65Q268.66 32.65 268.98 32.65Q269.29 32.65 269.64 32.65L269.64 32.65L278.69 56.61L278.23 56.96L283.97 39.50Q284.61 37.53 284.46 36.39Q284.32 35.26 283.30 34.71Q282.29 34.16 280.20 34.05L280.20 34.05L280.20 32.89Q281.24 32.94 282.00 32.97Q282.75 33.00 283.48 33.03Q284.20 33.06 285.07 33.06L285.07 33.06Q286.40 33.06 287.48 33.00Q288.55 32.94 289.48 32.89ZM310.82 32.07L310.82 32.07Q313.03 32.07 314.51 32.65Q315.98 33.23 316.97 34.28L316.97 34.28Q318.07 35.44 318.54 37.18Q319.00 38.92 319.00 41.88L319.00 41.88L319.00 57.36Q319.00 59.80 320.02 60.67Q321.03 61.54 323.41 61.54L323.41 61.54L323.41 62.76Q322.42 62.70 320.39 62.61Q318.36 62.52 316.45 62.52L316.45 62.52Q314.53 62.52 312.71 62.61Q310.88 62.70 309.95 62.76L309.95 62.76L309.95 61.54Q312.04 61.54 312.91 60.67Q313.78 59.80 313.78 57.36L313.78 57.36L313.78 40.60Q313.78 38.80 313.49 37.29Q313.20 35.79 312.19 34.86Q311.17 33.93 309.08 33.93L309.08 33.93Q306.65 33.93 304.82 35.32Q302.99 36.71 301.98 39.12Q300.96 41.53 300.96 44.49L300.96 44.49L300.96 57.36Q300.96 59.80 301.83 60.67Q302.70 61.54 304.79 61.54L304.79 61.54L304.79 62.76Q303.86 62.70 302.04 62.61Q300.21 62.52 298.29 62.52L298.29 62.52Q296.38 62.52 294.35 62.61Q292.32 62.70 291.33 62.76L291.33 62.76L291.33 61.54Q293.71 61.54 294.73 60.67Q295.74 59.80 295.74 57.36L295.74 57.36L295.74 39.21Q295.74 36.60 294.81 35.35Q293.89 34.10 291.33 34.10L291.33 34.10L291.33 32.89Q293.19 33.06 294.93 33.06L294.93 33.06Q296.61 33.06 298.15 32.86Q299.69 32.65 300.96 32.25L300.96 32.25L300.96 39.09Q302.47 35.15 305.17 33.61Q307.86 32.07 310.82 32.07Z" transform="translate(0, 0)"></path></g></svg></svg>